<svg width="200" height="200" viewBox="0 0 200 200" fill="none" xmlns="http://www.w3.org/2000/svg">
  <circle cx="100" cy="100" r="100" fill="#F0EAE5" />
  
  <g stroke="#214C9B" stroke-width="8" stroke-linecap="round" stroke-linejoin="round" fill="none">
    <line x1="30" y1="95" x2="170" y2="95" />
    
    <line x1="100" y1="40" x2="100" y2="95" />
    <line x1="70" y1="60" x2="70" y2="95" />
    <line x1="130" y1="60" x2="130" y2="95" />
    <line x1="45" y1="75" x2="45" y2="95" />
    <line x1="155" y1="75" x2="155" y2="95" />
    
    <path d="M 100 45 Q 85 55 70 60" />
    <path d="M 70 60 Q 57 70 45 75" />
    <path d="M 45 75 Q 37 85 30 95" />
    
    <path d="M 100 65 Q 85 70 70 75" />
    <path d="M 70 75 Q 57 80 45 85" />
    
    <path d="M 100 45 Q 115 55 130 60" />
    <path d="M 130 60 Q 143 70 155 75" />
    <path d="M 155 75 Q 163 85 170 95" />
    
    <path d="M 100 65 Q 115 70 130 75" />
    <path d="M 130 75 Q 143 80 155 85" />

    <line x1="70" y1="95" x2="70" y2="115" />
    <line x1="130" y1="95" x2="130" y2="115" />

    <path d="M 70 115 Q 100 85 130 115" />

    <path d="M 40 125 Q 55 140 70 125 T 100 125 T 130 125 T 160 125" />
    <path d="M 60 150 Q 80 165 100 150 T 140 150" />
    <path d="M 85 170 Q 100 180 115 170" />
  </g>
</svg>